<svg width="449" height="87" viewBox="0 0 449 87" fill="none" xmlns="http://www.w3.org/2000/svg">
<path fill-rule="evenodd" clip-rule="evenodd" d="M168.03 0C163.112 0 158.809 3.09286 158.809 9.07242V66.5999V68.868V77.528C158.809 82.4766 162.907 86.6005 167.825 86.6005C172.744 86.6005 176.842 82.4766 176.842 77.528V68.868V9.27862C177.047 3.29906 172.744 0 168.03 0ZM327.669 2.47426C329.104 1.03092 330.948 0.412342 332.998 0.412342C335.047 0.412342 336.891 1.0309 338.531 2.26805C340.17 3.5052 340.99 5.56716 340.99 8.04146V60.0017V65.7751V78.5589C340.99 82.889 337.506 86.3942 333.203 86.3942C328.899 86.3942 325.415 82.889 325.415 78.5589V65.7751V49.8983H324.391C322.956 49.8983 321.727 49.6922 320.907 49.2798C320.087 48.8674 319.472 48.455 318.858 47.6302C318.448 47.0116 318.038 46.1869 317.833 45.1559C317.628 44.125 317.423 43.094 317.423 42.0631C317.423 41.0321 317.628 40.0011 317.833 38.9702C318.038 38.1454 318.243 37.3206 318.858 36.4959C319.267 35.6711 319.882 35.0525 320.907 34.6402C321.931 34.2278 322.956 34.0216 324.391 34.0216H325.415V8.24766C325.415 5.77336 326.235 3.71141 327.669 2.47426ZM315.784 29.0731V68.6619C317.833 68.8681 319.472 69.6928 319.882 70.93C320.907 72.3733 321.317 74.0228 321.317 75.6724C321.317 76.7033 321.112 77.5281 320.907 78.3529C320.702 79.1777 320.292 80.0024 319.677 80.621C319.268 81.2395 318.448 81.8581 317.628 82.2705C316.808 82.6829 315.784 82.8891 314.759 82.8891H282.995C281.971 82.8891 280.946 82.6829 280.126 82.2705C279.307 81.8582 278.692 81.2396 278.077 80.6211L278.077 80.621C277.462 80.0024 277.052 79.1777 276.847 78.3529C276.642 77.5281 276.438 76.4971 276.438 75.6724C276.438 74.229 276.847 72.7857 277.667 71.3423C278.487 69.899 279.716 69.0743 281.766 68.8681V29.0731C281.766 26.5988 282.38 24.7431 283.815 23.5059C285.249 22.2688 286.889 21.6502 289.348 21.6502C291.807 21.6502 293.447 22.2688 294.881 23.5059C296.316 24.7431 296.93 26.5988 296.93 29.0731V68.6619H300.619V29.0731C300.619 26.5988 301.234 24.7431 302.668 23.5059C304.103 22.2688 305.947 21.6502 308.201 21.6502C310.661 21.6502 312.3 22.2688 313.734 23.5059C315.169 24.7431 315.784 26.5988 315.784 29.0731ZM279.307 16.0829C279.921 16.7015 280.536 17.32 281.356 17.7324C282.176 18.1448 283.2 18.351 284.225 18.351H313.53C314.554 18.351 315.579 18.1448 316.399 17.7324C317.218 17.32 318.038 16.7015 318.448 16.0829C319.063 15.4643 319.473 14.6396 319.677 13.8148L319.678 13.8144C319.882 12.9898 320.087 12.1651 320.087 11.1343C320.087 10.3096 319.882 9.27857 319.677 8.45381C319.473 7.62904 319.063 6.80431 318.448 5.97954L318.448 5.97938C317.833 5.36086 317.218 4.74232 316.399 4.32997C315.579 3.91759 314.554 3.71142 313.325 3.71142H284.02C282.79 3.71142 281.766 3.91759 280.946 4.32997C280.126 4.74236 279.307 5.36097 278.897 5.97954C278.282 6.59812 277.872 7.42285 277.667 8.45381C277.462 9.27857 277.257 10.3096 277.257 11.1343C277.257 11.9591 277.462 12.99 277.667 13.8148C277.899 14.1253 278.101 14.4358 278.296 14.7354C278.62 15.2314 278.923 15.6972 279.307 16.0829ZM347.138 2.47426C348.777 1.03092 350.622 0.412342 352.671 0.412342C354.925 0.412342 356.769 1.03092 357.999 2.47426C359.638 3.71141 360.458 5.77336 360.458 8.24766V60.2079V65.9813V78.5589C360.458 82.889 356.974 86.3942 352.671 86.3942H352.466C348.162 86.3942 344.679 82.889 344.679 78.5589V65.9813V60.2079V8.24766C344.679 5.77336 345.498 3.71141 347.138 2.47426ZM445.708 2.68046C443.864 1.23712 441.815 0.412342 439.356 0.412342C436.896 0.412342 434.847 1.23712 433.003 2.68046C431.158 4.1238 430.339 6.39188 430.339 9.48476V60.8265V65.9813V78.1466C430.339 82.889 434.027 86.6004 438.741 86.6004H440.175C444.889 86.6004 448.577 82.889 448.577 78.1466V65.9813V60.8265V9.48476C448.577 6.59808 447.553 4.32999 445.708 2.68046ZM406.362 3.50526C409.436 4.53622 412.305 6.18579 414.559 8.24771C417.018 10.3096 418.658 12.9901 419.887 16.083C421.117 19.1758 421.732 22.6811 421.732 26.8049V60.0017C421.732 63.9194 421.117 67.6309 419.887 70.7237C418.658 73.8166 416.813 76.4971 414.559 78.559C412.305 80.6209 409.641 82.2705 406.362 83.3014C403.083 84.3324 399.599 84.9509 395.911 84.9509C392.222 84.9509 388.533 84.3324 385.459 83.3014C382.385 82.2705 379.516 80.6209 377.262 78.559C375.008 76.4971 373.164 73.8166 371.934 70.7237C370.704 67.6309 370.09 64.1256 370.09 60.0017V26.8049C370.09 22.6811 370.704 19.1758 371.934 16.083C373.164 12.9901 375.008 10.3096 377.262 8.24771C379.516 6.18579 382.385 4.53622 385.459 3.50526C388.533 2.4743 392.017 1.85575 395.911 1.85575C399.599 1.85575 403.288 2.4743 406.362 3.50526ZM401.649 67.4246C403.083 65.7751 403.903 63.507 403.903 60.4141V26.1863C403.903 23.0935 403.083 20.8254 401.649 19.1758C400.009 17.5263 398.165 16.9077 395.911 16.9077C393.656 17.1139 391.812 17.7325 390.378 19.382C388.943 21.0316 388.123 23.2997 388.123 26.3925V60.4141C388.123 63.507 388.943 65.7751 390.378 67.4246C391.812 68.868 393.656 69.6928 395.911 69.6928C398.165 69.6928 400.214 69.0742 401.649 67.4246ZM55.3198 68.0432C43.6389 60.0017 39.1304 47.6302 38.3107 27.4234C38.5156 24.7429 38.5156 21.8562 38.5156 18.7633V11.7528C38.5156 6.18567 34.2121 2.88663 29.4988 2.88663C24.7854 2.88663 20.4819 5.97948 20.4819 11.7528V18.9695C20.4819 44.3311 16.5883 58.7646 3.26794 68.0432C-1.03556 70.9299 -0.625696 76.2908 1.83344 79.1775C4.29259 82.4766 9.82565 82.6828 14.539 80.2085C20.6869 76.9094 25.6051 71.7546 29.4988 64.9503C33.3924 71.7546 38.3107 76.9094 44.4586 80.2085C49.1719 82.6828 54.705 82.2704 57.1641 79.1775C59.0085 76.2908 59.4183 70.9299 55.3198 68.0432ZM82.5751 18.9696H85.2391C89.7475 18.9696 93.4363 22.8872 93.4363 27.4235C93.4363 31.9597 89.7475 35.6711 85.2391 35.6711H82.5751V44.5373V66.8061V76.9094V77.7342C82.5751 82.6828 78.4765 86.8066 73.5582 86.8066C68.6399 86.8066 64.7463 82.889 64.5414 77.9404V77.7342V66.8061V9.27862C64.5414 3.50525 68.8449 0.412342 73.5582 0.412342C78.2716 0.412342 82.5751 3.50525 82.5751 9.27862V18.9696ZM96.3053 26.5987C96.3053 10.3095 106.962 1.64949 122.331 1.64949C137.496 1.64949 148.357 10.3095 148.357 26.5987V60.0017C148.357 76.2908 137.496 84.9509 122.331 84.9509C107.167 84.9509 96.3053 76.2908 96.3053 60.0017V26.5987ZM122.331 69.6927C126.84 69.6927 130.323 66.3936 130.323 60.2079V26.1863C130.323 20.0005 126.635 16.4953 122.331 16.7014C118.028 16.9076 114.544 20.2067 114.544 26.1863V60.2079C114.544 66.5998 117.823 69.6927 122.331 69.6927ZM235.452 67.837H208.401C206.762 67.837 205.942 67.2184 205.942 65.1565V21.8563C205.942 19.7943 206.762 19.1758 208.401 19.1758H231.148C236.271 19.1758 237.911 14.8458 237.911 11.3405C237.911 7.83528 236.271 3.71142 231.148 3.71142H202.048C190.163 3.71142 187.908 6.3919 187.908 17.9386V68.868C187.908 80.4147 190.163 83.3014 202.048 83.3014H235.247C240.37 83.3014 242.009 79.1775 242.009 75.6723C242.214 72.167 240.78 67.837 235.452 67.837ZM265.576 18.5572H267.83C272.339 18.5572 276.028 22.2687 276.028 26.8049C276.028 31.3411 272.339 35.0526 267.83 35.0526H265.576V48.8674V65.7751V66.5999V77.528C265.576 82.4766 261.478 86.6005 256.559 86.6005C251.641 86.6005 247.543 82.4766 247.543 77.528V66.5999V65.7751V9.48475C247.543 3.71138 251.846 0.618535 256.559 0.618535C261.273 0.618535 265.576 3.71138 265.576 9.48475V18.5572Z" fill="url(#paint0_linear)"/>
<defs>
<linearGradient id="paint0_linear" x1="-30.8124" y1="18.6014" x2="388.306" y2="67.6074" gradientUnits="userSpaceOnUse">
<stop stop-color="#3FCBD3"/>
<stop offset="1" stop-color="#05CEB8"/>
</linearGradient>
</defs>
</svg>
