<svg width="114" height="22" viewBox="0 0 114 22" fill="none" xmlns="http://www.w3.org/2000/svg">
<path fill-rule="evenodd" clip-rule="evenodd" d="M42.4799 0C41.2365 0 40.1485 0.782103 40.1485 2.29417V16.8413V17.4149V19.6048C40.1485 20.8561 41.1847 21.899 42.4281 21.899C43.6715 21.899 44.7076 20.8561 44.7076 19.6048V17.4149V2.34632C44.7594 0.834246 43.6715 0 42.4799 0ZM82.8384 0.625676C83.2011 0.260693 83.6673 0.104272 84.1854 0.104272C84.7035 0.104272 85.1698 0.26069 85.5842 0.573532C85.9987 0.886374 86.2059 1.40779 86.2059 2.03347V15.1728V16.6328V19.8655C86.2059 20.9604 85.3252 21.8468 84.2372 21.8468C83.1492 21.8468 82.2685 20.9604 82.2685 19.8655V16.6328V12.618H82.0095C81.6468 12.618 81.336 12.5658 81.1287 12.4616C80.9215 12.3573 80.7661 12.253 80.6106 12.0444C80.507 11.888 80.4034 11.6794 80.3516 11.4187C80.2998 11.158 80.248 10.8973 80.248 10.6366C80.248 10.3759 80.2998 10.1152 80.3516 9.85453L80.3516 9.85448C80.4034 9.64594 80.4552 9.43739 80.6106 9.22884C80.7143 9.02028 80.8697 8.86386 81.1287 8.75958C81.3878 8.6553 81.6468 8.60317 82.0095 8.60317H82.2685V2.08562C82.2685 1.45993 82.4757 0.938518 82.8384 0.625676ZM79.8336 7.35181V17.3628C80.3516 17.4149 80.7661 17.6235 80.8697 17.9363C81.1288 18.3013 81.2324 18.7184 81.2324 19.1355C81.2324 19.3962 81.1806 19.6048 81.1288 19.8134C81.077 20.0219 80.9733 20.2305 80.8179 20.3869C80.7143 20.5433 80.5071 20.6998 80.2998 20.804C80.0926 20.9083 79.8336 20.9605 79.5745 20.9605H71.5443C71.2852 20.9605 71.0262 20.9083 70.819 20.804C70.6117 20.6998 70.4563 20.5434 70.3009 20.387L70.3009 20.3869C70.1454 20.2305 70.0418 20.0219 69.99 19.8134C69.9382 19.6048 69.8864 19.3441 69.8864 19.1355C69.8864 18.7706 69.99 18.4056 70.1973 18.0406C70.4045 17.6756 70.7153 17.4671 71.2334 17.4149V7.35181C71.2334 6.72612 71.3888 6.25687 71.7515 5.94403C72.1142 5.63119 72.5286 5.47477 73.1503 5.47477C73.772 5.47477 74.1865 5.63119 74.5491 5.94403C74.9118 6.25687 75.0672 6.72612 75.0672 7.35181V17.3628H75.9998V7.35181C75.9998 6.72612 76.1552 6.25687 76.5178 5.94403C76.8805 5.63119 77.3468 5.47477 77.9167 5.47477C78.5384 5.47477 78.9528 5.63119 79.3155 5.94403C79.6781 6.25687 79.8336 6.72612 79.8336 7.35181ZM70.6117 4.06695C70.7672 4.22337 70.9226 4.37978 71.1298 4.48406C71.3371 4.58834 71.5961 4.64049 71.8551 4.64049H79.2637C79.5227 4.64049 79.7818 4.58834 79.989 4.48406C80.1962 4.37978 80.4035 4.22337 80.5071 4.06695C80.6625 3.91053 80.7661 3.70196 80.8179 3.4934C80.8697 3.28484 80.9215 3.07628 80.9215 2.81558C80.9215 2.60702 80.8697 2.34631 80.8179 2.13774C80.7661 1.92918 80.6625 1.72063 80.5071 1.51207L80.507 1.51199C80.3516 1.3556 80.1962 1.1992 79.989 1.09494C79.7818 0.990656 79.5227 0.938522 79.2119 0.938522H71.8033C71.4925 0.938522 71.2334 0.990656 71.0262 1.09494C70.819 1.19922 70.6117 1.35565 70.5081 1.51207C70.3527 1.66849 70.2491 1.87704 70.1973 2.13774C70.1455 2.34631 70.0937 2.60702 70.0937 2.81558C70.0937 3.02414 70.1455 3.28484 70.1973 3.4934C70.2558 3.57193 70.307 3.65045 70.3563 3.7262C70.4381 3.85162 70.5148 3.96942 70.6117 4.06695ZM87.7602 0.625676C88.1747 0.260693 88.6409 0.104272 89.159 0.104272C89.7289 0.104272 90.1952 0.260693 90.506 0.625676C90.9205 0.938518 91.1277 1.45993 91.1277 2.08562V15.225V16.6849V19.8655C91.1277 20.9604 90.247 21.8468 89.159 21.8468H89.1072C88.0192 21.8468 87.1385 20.9604 87.1385 19.8655V16.6849V15.225V2.08562C87.1385 1.45993 87.3457 0.938518 87.7602 0.625676ZM112.68 0.677819C112.214 0.312836 111.696 0.104272 111.074 0.104272C110.452 0.104272 109.934 0.312836 109.468 0.677819C109.002 1.0428 108.794 1.61634 108.794 2.39845V15.3814V16.6849V19.7612C108.794 20.9604 109.727 21.899 110.918 21.899H111.281C112.473 21.899 113.405 20.9604 113.405 19.7612V16.6849V15.3814V2.39845C113.405 1.66848 113.146 1.09494 112.68 0.677819ZM102.733 0.886388C103.51 1.14709 104.235 1.56422 104.805 2.08563C105.427 2.60703 105.841 3.28485 106.152 4.06696C106.463 4.84906 106.618 5.73545 106.618 6.77826V15.1729C106.618 16.1635 106.463 17.1021 106.152 17.8842C105.841 18.6663 105.375 19.3441 104.805 19.8655C104.235 20.3869 103.562 20.804 102.733 21.0647C101.904 21.3254 101.023 21.4818 100.091 21.4818C99.158 21.4818 98.2254 21.3254 97.4483 21.0647C96.6712 20.804 95.9459 20.3869 95.376 19.8655C94.8061 19.3441 94.3398 18.6663 94.029 17.8842C93.7181 17.1021 93.5627 16.2157 93.5627 15.1729V6.77826C93.5627 5.73545 93.7181 4.84906 94.029 4.06696C94.3398 3.28485 94.8061 2.60703 95.376 2.08563C95.9459 1.56422 96.6712 1.14709 97.4483 0.886388C98.2254 0.625686 99.1062 0.469271 100.091 0.469271C101.023 0.469271 101.956 0.625686 102.733 0.886388ZM101.541 17.0499C101.904 16.6328 102.111 16.0592 102.111 15.2771V6.62183C102.111 5.83973 101.904 5.26618 101.541 4.84906C101.127 4.43194 100.66 4.27551 100.091 4.27551C99.5206 4.32765 99.0544 4.48408 98.6917 4.9012C98.329 5.31833 98.1218 5.89187 98.1218 6.67397V15.2771C98.1218 16.0592 98.329 16.6328 98.6917 17.0499C99.0544 17.4149 99.5206 17.6235 100.091 17.6235C100.66 17.6235 101.178 17.467 101.541 17.0499ZM13.9854 17.2063C11.0324 15.1728 9.89259 12.0444 9.68536 6.93466C9.73717 6.25683 9.73717 5.52686 9.73717 4.74475V2.97198C9.73717 1.56419 8.6492 0.729952 7.45761 0.729952C6.26602 0.729952 5.17806 1.51205 5.17806 2.97198V4.7969C5.17806 11.2102 4.1937 14.86 0.82617 17.2063C-0.2618 17.9363 -0.158183 19.2919 0.463515 20.0219C1.08521 20.8561 2.48403 20.9083 3.67562 20.2826C5.22986 19.4484 6.47326 18.1448 7.45761 16.4242C8.44197 18.1448 9.68536 19.4484 11.2396 20.2826C12.4312 20.9083 13.83 20.804 14.4517 20.0219C14.918 19.2919 15.0216 17.9363 13.9854 17.2063ZM20.8759 4.79691H21.5494C22.6892 4.79691 23.6217 5.78758 23.6217 6.93467C23.6217 8.08176 22.6892 9.02028 21.5494 9.02028H20.8759V11.2623V16.8935V19.4484V19.6569C20.8759 20.9083 19.8397 21.9511 18.5963 21.9511C17.3529 21.9511 16.3686 20.9604 16.3168 19.7091V19.6569V16.8935V2.34632C16.3168 0.886387 17.4047 0.104272 18.5963 0.104272C19.7879 0.104272 20.8759 0.886387 20.8759 2.34632V4.79691ZM24.347 6.7261C24.347 2.60701 27.041 0.417112 30.9267 0.417112C34.7605 0.417112 37.5063 2.60701 37.5063 6.7261V15.1728C37.5063 19.2919 34.7605 21.4818 30.9267 21.4818C27.0929 21.4818 24.347 19.2919 24.347 15.1728V6.7261ZM30.9267 17.6234C32.0664 17.6234 32.9472 16.7892 32.9472 15.225V6.62182C32.9472 5.0576 32.0146 4.17121 30.9267 4.22335C29.8387 4.27549 28.9579 5.10974 28.9579 6.62182V15.225C28.9579 16.8413 29.7869 17.6234 30.9267 17.6234ZM59.5248 17.1542H52.6861C52.2716 17.1542 52.0644 16.9978 52.0644 16.4764V5.52687C52.0644 5.00547 52.2716 4.84905 52.6861 4.84905H58.4368C59.732 4.84905 60.1464 3.75411 60.1464 2.86772C60.1464 1.98134 59.732 0.938522 58.4368 0.938522H51.08C48.0752 0.938522 47.5053 1.61634 47.5053 4.53621V17.4149C47.5053 20.3348 48.0752 21.0647 51.08 21.0647H59.4729C60.7681 21.0647 61.1826 20.0219 61.1826 19.1355C61.2344 18.2491 60.8718 17.1542 59.5248 17.1542ZM67.1406 4.69263H67.7104C68.8502 4.69263 69.7828 5.63116 69.7828 6.77825C69.7828 7.92534 68.8502 8.86386 67.7104 8.86386H67.1406V12.3573V16.6328V16.8413V19.6048C67.1406 20.8561 66.1044 21.899 64.861 21.899C63.6176 21.899 62.5814 20.8561 62.5814 19.6048V16.8413V16.6328V2.39844C62.5814 0.93851 63.6694 0.15641 64.861 0.15641C66.0526 0.15641 67.1406 0.93851 67.1406 2.39844V4.69263Z" fill="url(#paint0_linear)"/>
<defs>
<linearGradient id="paint0_linear" x1="-7.78972" y1="4.70381" x2="98.1688" y2="17.0901" gradientUnits="userSpaceOnUse">
<stop stop-color="#3FCBD3"/>
<stop offset="1" stop-color="#05CEB8"/>
</linearGradient>
</defs>
</svg>
